<svg width="76" height="76" viewBox="0 0 76 76" fill="none" xmlns="http://www.w3.org/2000/svg">
<g clip-path="url(#clip0_553_689)">
<path d="M66.4226 75.4696H9.04695C4.05028 75.4696 0 71.4193 0 66.4259V9.04364C0 4.05028 4.05028 0 9.04695 0H66.4259C71.4226 0 75.4729 4.05028 75.4729 9.04364V66.4226C75.4729 71.4193 71.4226 75.4663 66.4259 75.4663" fill="white"/>
<path d="M42.8409 11.8716H42.8249C41.8364 11.8818 41.0384 12.6842 41.0384 13.6756C41.0384 13.7017 41.0384 18.9013 41.0384 18.9028C41.0835 19.4653 41.3931 19.9188 41.8364 20.2168C41.8713 20.2372 41.9048 20.2604 41.9396 20.2823C41.9702 20.2997 41.9992 20.3171 42.0051 20.32C42.0821 20.3637 42.165 20.4233 42.2391 20.4814C42.8002 20.8739 43.3002 21.3434 43.7261 21.8783C44.6783 23.0427 45.2335 24.4861 45.2742 26.1709C45.2931 26.9355 45.1783 27.6754 44.9559 28.3731C44.0779 31.228 41.444 33.311 38.3129 33.3677C38.2983 33.3677 38.2838 33.3677 38.2693 33.3677C38.2416 33.3677 38.214 33.3692 38.1864 33.3692C38.1399 33.3692 38.0948 33.3663 38.0483 33.3663C38.0047 33.3663 37.9611 33.3663 37.916 33.3663C37.8913 33.3663 37.8666 33.3634 37.8419 33.3619C37.8215 33.3619 37.8012 33.359 37.7808 33.359C37.0729 33.3212 36.3912 33.1773 35.7516 32.9418C35.6484 32.904 35.5452 32.8633 35.4449 32.8212C35.4303 32.8154 35.4158 32.8081 35.4013 32.8023C35.314 32.7645 35.2283 32.7267 35.144 32.686C35.1164 32.6729 35.0902 32.6598 35.064 32.6467C34.9913 32.6104 34.9201 32.5755 34.8489 32.5363C34.8125 32.5174 34.7777 32.497 34.7413 32.4767C34.6803 32.4418 34.6178 32.4069 34.5582 32.3705C34.5175 32.3458 34.4782 32.3211 34.439 32.2964C34.3823 32.2615 34.327 32.2252 34.2718 32.1888C34.2326 32.1627 33.5043 31.6016 33.4374 31.5405C33.4287 31.5333 33.4214 31.526 33.4142 31.5187C31.9446 30.1829 31.0331 28.2481 31.1087 26.1374C31.1087 26.1142 31.1116 26.0909 31.1131 26.0662C31.132 25.4571 31.2279 24.8684 31.3907 24.3073C31.3951 24.2942 31.398 24.2812 31.4024 24.2681C31.43 24.1765 31.4591 24.0849 31.4896 23.9948C32.0216 22.4074 33.0682 21.1573 34.4375 20.2648C34.939 20.0177 35.2835 19.5031 35.2835 18.9071V13.3834C35.2821 12.549 34.6047 11.8716 33.7689 11.8716H26.7203C25.0762 11.8716 23.7432 13.2046 23.7432 14.8486V37.7257C23.7432 39.3697 25.0762 40.7027 26.7203 40.7027H49.5973C51.2414 40.7027 52.5743 39.3697 52.5743 37.7257V14.8486C52.5743 13.2046 51.2414 11.8716 49.5973 11.8716H42.8438" fill="#B70E0C"/>
<path d="M13.0675 62.8139C11.767 62.8139 10.589 62.5194 9.53338 61.9337C8.4811 61.348 7.64722 60.5538 7.03836 59.5578C6.42618 58.5617 6.12175 57.4433 6.12175 56.2057C6.12175 54.9681 6.41626 53.8496 7.00196 52.8536C7.58766 51.8576 8.38845 51.0634 9.40102 50.4777C10.4136 49.892 11.5387 49.5975 12.7763 49.5975C14.0138 49.5975 15.1389 49.8986 16.1052 50.5009C17.0714 51.1031 17.8292 51.9271 18.3851 52.9727C18.941 54.0184 19.2157 55.2163 19.2157 56.5664V57.5326H10.1224C10.2978 57.933 10.536 58.2871 10.8338 58.5948C11.1317 58.8993 11.489 59.1375 11.906 59.3063C12.3229 59.475 12.7729 59.5578 13.2561 59.5578C13.7855 59.5578 14.2686 59.475 14.7021 59.3063C15.1356 59.1375 15.5062 58.8993 15.8107 58.5948L18.3917 60.8847C17.5876 61.5597 16.7637 62.0495 15.9199 62.3572C15.076 62.6616 14.123 62.8172 13.0608 62.8172M10.0529 54.8093H15.3838C15.2547 54.3923 15.0595 54.0349 14.7948 53.7371C14.5301 53.4393 14.219 53.2077 13.8649 53.0389C13.5109 52.8702 13.1237 52.7841 12.7068 52.7841C12.2898 52.7841 11.8795 52.8635 11.5254 53.0257C11.1714 53.1878 10.8702 53.4162 10.6221 53.714C10.3739 54.0118 10.182 54.3758 10.0562 54.8126" fill="#B70E0C"/>
<path d="M19.8444 62.5756V49.8159H23.7524V50.6365C24.6524 49.9284 25.7147 49.5743 26.9357 49.5743C27.7398 49.5743 28.4645 49.7266 29.1064 50.031C29.7484 50.3354 30.2878 50.7722 30.7212 51.3314C31.2375 50.7689 31.8463 50.3354 32.5545 50.031C33.2626 49.7266 34.0336 49.5743 34.8708 49.5743C35.837 49.5743 36.6875 49.7927 37.4287 50.2262C38.1666 50.6597 38.7523 51.262 39.1759 52.0363C39.6027 52.8073 39.8145 53.7007 39.8145 54.7133V62.5756H35.9065V55.2427C35.9065 54.5346 35.7179 53.9721 35.3407 53.5551C34.9635 53.1382 34.4605 52.9264 33.8318 52.9264C33.3983 52.9264 33.0045 53.0058 32.6504 53.168C32.2964 53.3301 31.9919 53.5684 31.7338 53.8927C31.7504 54.0217 31.7603 54.1541 31.7702 54.2897C31.7768 54.4254 31.7835 54.5677 31.7835 54.7133V62.5756H27.8755V55.2427C27.8755 54.5346 27.6868 53.9721 27.3096 53.5551C26.9324 53.1382 26.4294 52.9264 25.804 52.9264C25.3705 52.9264 24.98 53.0025 24.6326 53.1547C24.2885 53.307 23.9939 53.5353 23.7524 53.843V62.5723H19.8444V62.5756Z" fill="#B70E0C"/>
<path d="M35.8867 62.5855V49.8258L37.8688 51.98C37.8688 51.98 38.5439 49.5214 42.9747 49.5843C43.7788 49.5942 44.5035 49.7365 45.1454 50.0409C45.7874 50.3453 46.3268 50.7821 46.7602 51.3414C47.2764 50.7788 47.8853 50.3453 48.5935 50.0409C49.3016 49.7365 50.0726 49.5843 50.9098 49.5843C51.876 49.5843 52.7265 49.8027 53.4677 50.2361C54.2056 50.6696 54.7913 51.2719 55.2182 52.0462C55.645 52.8172 55.8568 53.7106 55.8568 54.7232V62.5855H51.9488V55.2527C51.9488 54.5445 51.7602 53.982 51.383 53.565C51.0058 53.1481 50.5028 52.9363 49.8741 52.9363C49.4406 52.9363 49.0468 53.0157 48.6927 53.1779C48.3387 53.34 48.0342 53.5783 47.7761 53.9026C47.7927 54.0316 47.8026 54.164 47.8125 54.2997C47.8191 54.4353 47.8258 54.5776 47.8258 54.7232V62.5855H43.9178V55.2527C43.9178 54.5445 43.7291 53.982 43.3519 53.565C42.9747 53.1481 42.4717 52.9363 41.8463 52.9363C41.4128 52.9363 41.0223 53.0124 40.6749 53.1646C40.3307 53.3169 40.0362 53.5452 39.7947 53.8529V62.5822H35.8867V62.5855Z" fill="#B70E0C"/>
<path d="M61.0421 62.8039C60.142 62.8039 59.3413 62.6352 58.643 62.2977C57.9448 61.9601 57.3955 61.4936 57.0017 60.8979C56.608 60.3023 56.4094 59.6206 56.4094 58.8463C56.4094 57.6253 56.8727 56.6789 57.7959 56.0138C58.7192 55.3453 60.0097 55.0111 61.6675 55.0111C62.6635 55.0111 63.6298 55.1302 64.5629 55.3718V54.7431C64.5629 54.1011 64.3578 53.6213 63.9475 53.307C63.5371 52.9926 62.9316 52.8371 62.1275 52.8371C61.6278 52.8371 61.0686 52.9165 60.4498 53.0786C59.831 53.2408 59.103 53.4956 58.2658 53.8496L56.8661 50.9807C57.9117 50.5141 58.921 50.1634 59.8939 49.9317C60.8667 49.7001 61.8429 49.581 62.8257 49.581C64.5927 49.581 65.9693 50.0012 66.9488 50.8483C67.9282 51.6921 68.4213 52.8768 68.4213 54.4056V62.5822H64.5629V61.8112C64.0467 62.1653 63.504 62.4168 62.9349 62.569C62.3624 62.7212 61.7337 62.7973 61.0421 62.7973M60.1255 58.7768C60.1255 59.1805 60.3009 59.4916 60.6549 59.7166C61.009 59.9416 61.4988 60.0541 62.1275 60.0541C62.5941 60.0541 63.0308 60.0045 63.4412 59.9085C63.8515 59.8126 64.2254 59.6603 64.5629 59.4486V57.8073C64.1923 57.7113 63.8151 57.6385 63.4312 57.5889C63.0441 57.5392 62.6503 57.5161 62.2499 57.5161C61.5749 57.5161 61.052 57.6253 60.6814 57.8404C60.3108 58.0588 60.1255 58.3665 60.1255 58.7702" fill="#B70E0C"/>
</g>
<defs>
<clipPath id="clip0_553_689">
<rect width="75.4696" height="75.4696" fill="white"/>
</clipPath>
</defs>
</svg>
